<svg id="color_icon" height="512" viewBox="0 0 74 74" width="512" xmlns="http://www.w3.org/2000/svg" data-name="color icon">
<rect fill="#dbd8dd" height="7.593" rx="1.909" width="57.065" x="8.467" y="9.9"/>
<path d="m11.89 17.493 2.817 49.353a4.406 4.406 0 0 0 4.398 4.154h35.795a4.406 4.406 0 0 0 4.4-4.154l2.81-49.353z" fill="#9a9eaf"/>
<rect fill="#828a9e" height="7.593" rx="1.909" width="57.065" x="8.467" y="9.9"/>
<path d="m63.623 17.993h-53.246a2.412 2.412 0 0 1 -2.409-2.409v-3.774a2.412 2.412 0 0 1 2.409-2.41h53.246a2.412 2.412 0 0 1 2.409 2.41v3.774a2.412 2.412 0 0 1 -2.409 2.409zm-53.246-7.593a1.411 1.411 0 0 0 -1.409 1.41v3.774a1.41 1.41 0 0 0 1.409 1.409h53.246a1.41 1.41 0 0 0 1.409-1.409v-3.774a1.411 1.411 0 0 0 -1.409-1.41z" fill="#323c6b"/>
<path d="m62.107 17.5-2.819 49.342a4.386 4.386 0 0 1 -4.388 4.151h-3.956a4.387 4.387 0 0 0 4.392-4.151l2.819-49.342z" fill="#828a9e"/><g fill="#323c6b">
<path d="m46.786 10.4h-19.572a.5.5 0 0 1 -.5-.5v-2.191a4.548 4.548 0 0 1 4.543-4.542h11.486a4.548 4.548 0 0 1 4.543 4.542v2.191a.5.5 0 0 1 -.5.5zm-19.072-1h18.572v-1.691a3.547 3.547 0 0 0 -3.543-3.542h-11.486a3.547 3.547 0 0 0 -3.543 3.542z"/>
<path d="m48.18 64.208h-.03a.5.5 0 0 1 -.469-.528l2.276-38.923a.488.488 0 0 1 .528-.47.5.5 0 0 1 .47.528l-2.276 38.922a.5.5 0 0 1 -.499.471z"/><path d="m37 64.208a.5.5 0 0 1 -.5-.5v-38.923a.5.5 0 1 1 1 0v38.923a.5.5 0 0 1 -.5.5z"/>
<path d="m25.82 64.208a.5.5 0 0 1 -.5-.471l-2.275-38.923a.5.5 0 1 1 1-.058l2.276 38.923a.5.5 0 0 1 -.469.528z"/>
<path d="m54.9 71.5h-35.795a4.908 4.908 0 0 1 -4.9-4.626l-2.814-49.353a.5.5 0 0 1 .5-.528h50.219a.5.5 0 0 1 .5.528l-2.818 49.353a4.908 4.908 0 0 1 -4.892 4.626zm-42.481-53.507 2.787 48.824a3.908 3.908 0 0 0 3.9 3.683h35.794a3.908 3.908 0 0 0 3.9-3.683l2.787-48.824z"/>
<path d="m5.5 12h-.033a.5.5 0 0 1 -.467-.532 5.411 5.411 0 0 1 5.377-5.068h5.623a.5.5 0 0 1 0 1h-5.623a4.409 4.409 0 0 0 -4.377 4.132.5.5 0 0 1 -.5.468z"/><path d="m23 7.4h-2.75a.5.5 0 0 1 0-1h2.75a.5.5 0 0 1 0 1z"/>
<path d="m11.447 62.875a.5.5 0 0 1 -.5-.472l-.7-12.25a.5.5 0 0 1 .471-.527.491.491 0 0 1 .527.471l.7 12.25a.5.5 0 0 1 -.47.527z"/><path d="m10.555 47.25a.5.5 0 0 1 -.5-.472l-.205-3.625a.5.5 0 0 1 .47-.527.492.492 0 0 1 .528.471l.206 3.625a.5.5 0 0 1 -.471.527z"/></g>
<path d="m17.92 50.125a.7.7 0 0 1 -.7-.66l-.933-10.789a.7.7 0 0 1 1.4-.08l.933 10.789a.7.7 0 0 1 -.659.739z" fill="#fff"/>
<path d="m16.75 36.288a.7.7 0 0 1 -.7-.66l-.143-1.343a.7.7 0 0 1 1.4-.08l.142 1.343a.7.7 0 0 1 -.659.739z" fill="#fff"/>
<text fill="#f00" font-family="ArialMT, Arial" font-size="18" transform="translate(25.733 -25.811)">10<tspan x="0" y="124">20</tspan>
<tspan x="0" y="248">30</tspan><tspan x="0" y="372">40</tspan><tspan x="0" y="496">50</tspan><tspan x="0" y="620">60</tspan><tspan x="0" y="744">70</tspan><tspan x="0" y="868">80</tspan><tspan x="0" y="992">90</tspan><tspan x="-5.005" y="1116">100</tspan>
<tspan letter-spacing="-.074em" x="-4.337" y="1240">1</tspan><tspan x="4.337" y="1240">10</tspan>
<tspan x="-5.005" y="1364">120</tspan><tspan x="-5.005" y="1488">130</tspan><tspan x="-5.005" y="1612">140</tspan>
<tspan x="-5.005" y="1736">150</tspan><tspan x="-5.005" y="1860">160</tspan><tspan x="-5.005" y="1984">170</tspan>
<tspan x="-5.005" y="2108">180</tspan><tspan x="-5.005" y="2232">190</tspan><tspan x="-5.005" y="2356">200</tspan>
<tspan x="-5.005" y="2480">210</tspan><tspan x="-5.005" y="2604">220</tspan><tspan x="-5.005" y="2728">230</tspan>
<tspan x="-5.005" y="2852">240</tspan><tspan x="-5.005" y="2976">250</tspan><tspan x="-5.005" y="3100">260</tspan>
<tspan x="-5.005" y="3224">270</tspan><tspan x="-5.005" y="3348">280</tspan><tspan x="-5.005" y="3472">290</tspan>
<tspan x="-5.005" y="3596">300</tspan></text></svg>